<?xml version="1.0" encoding="UTF-8" standalone="no"?>
<svg
   xmlns:dc="http://purl.org/dc/elements/1.1/"
   xmlns:cc="http://creativecommons.org/ns#"
   xmlns:rdf="http://www.w3.org/1999/02/22-rdf-syntax-ns#"
   xmlns:svg="http://www.w3.org/2000/svg"
   xmlns="http://www.w3.org/2000/svg"
   xmlns:sodipodi="http://sodipodi.sourceforge.net/DTD/sodipodi-0.dtd"
   xmlns:inkscape="http://www.inkscape.org/namespaces/inkscape"
   viewBox="0 -0.5 191.99999 64"
   version="1.1"
   id="svg50"
   sodipodi:docname="TOPPOINT_r2r.svg"
   width="192"
   height="64"
   inkscape:version="1.0.1 (3bc2e813f5, 2020-09-07)"
   inkscape:export-filename="/home/fabian/gitcontrolled/rc3-tp-assembly-world/r2r-tp/tilesets/toppoint/TOPPOINT_r2r.png"
   inkscape:export-xdpi="96"
   inkscape:export-ydpi="96">
  <metadata
     id="metadata56">
    <rdf:RDF>
      <cc:Work
         rdf:about="">
        <dc:format>image/svg+xml</dc:format>
        <dc:type
           rdf:resource="http://purl.org/dc/dcmitype/StillImage" />
        <dc:title></dc:title>
      </cc:Work>
    </rdf:RDF>
  </metadata>
  <defs
     id="defs54" />
  <sodipodi:namedview
     pagecolor="#ffffff"
     bordercolor="#666666"
     borderopacity="1"
     objecttolerance="10"
     gridtolerance="10"
     guidetolerance="10"
     inkscape:pageopacity="0"
     inkscape:pageshadow="2"
     inkscape:window-width="1920"
     inkscape:window-height="1031"
     id="namedview52"
     showgrid="false"
     inkscape:zoom="6.5006952"
     inkscape:cx="101.94508"
     inkscape:cy="21.226458"
     inkscape:window-x="0"
     inkscape:window-y="25"
     inkscape:window-maximized="1"
     inkscape:current-layer="svg50"
     inkscape:document-rotation="0" />
  <g
     id="g905"
     transform="matrix(4.2948351,0,0,4.2948351,-2.7234006,16.906635)">
    <g
       id="g32">
      <path
         d="m 20.4,-0.771 c -0.695,0.185 -1.45,-0.188 -2.1,-0.398 -0.76,-0.214 -1.63,-0.353 -2.33,0.0965 -0.488,0.299 -0.798,0.79 -1,1.31 -0.0821,-2.02 0.154,-4.05 0.731,-5.98 0.274,-0.943 -1.16,-1.39 -1.47,-0.453 -0.633,2.01 -1.29,4.03 -1.92,6.04 -0.362,1.15 -0.672,2.36 -1.17,3.5 -0.392,-2.93 -0.0398,-5.91 0.283,-8.83 0.113,-0.869 -1.23,-1.05 -1.5,-0.269 -0.785,2.54 -1.6,5.05 -2.38,7.59 -0.308,-1.65 -0.323,-3.35 -0.312,-5.02 7.51e-4,-0.715 -1.02,-1.15 -1.41,-0.451 -0.541,0.986 -0.951,2.03 -1.2,3.1 -1.67,-0.0634 -3.31,-0.0994 -4.97,-0.163 -0.978,-0.0373 -1.04,1.5 -0.0584,1.53 1.88,0.0715 3.73,0.116 5.61,0.187 0.238,0.00906 0.507,-0.113 0.648,-0.32 0.159,1.38 0.453,2.72 1.01,4.01 0.268,0.619 1.23,0.47 1.41,-0.132 l 1.15,-3.69 c 0.0179,1.62 0.195,3.21 0.638,4.79 0.187,0.643 1,0.78 1.39,0.238 1.03,-1.42 1.52,-3.17 2.04,-4.85 0.0542,0.664 0.135,1.33 0.242,2 0.0866,0.506 0.689,0.688 1.09,0.492 0.673,-0.292 1.04,-0.966 1.23,-1.62 0.151,-0.497 0.182,-1.29 0.62,-1.67 0.438,-0.38 1.19,-0.00756 1.66,0.143 0.785,0.242 1.62,0.485 2.43,0.278 0.962,-0.228 0.622,-1.72 -0.341,-1.47 z"
         transform="matrix(0.13201141,-4.8989058e-4,4.8989058e-4,0.13201141,3.4698191,2.4461613)"
         fill="#d10369"
         id="path2" />
      <path
         d="m -0.336,0.806 c 0.714,0.0359 1.43,0.0453 2.14,0.0812 0.635,0.0348 1.32,0.123 1.88,-0.293 0.294,-0.234 0.484,-0.576 0.594,-0.918 0.219,1.46 0.358,2.94 0.365,4.45 0.0146,0.9 1.33,1.13 1.58,0.233 0.585,-2.21 1.2,-4.43 1.78,-6.64 0.124,0.637 0.247,1.3 0.318,1.94 0.168,1.33 0.229,2.68 0.211,4.02 -0.00944,0.714 0.859,1.04 1.37,0.574 0.937,-0.861 0.662,-2 0.941,-3.11 0.168,-0.686 1.37,-0.547 2.11,-0.485 1.71,0.142 1.86,-1.48 0.445,-1.52 -1.41,-0.034 -2.42,-0.564 -3.41,0.349 l -0.0536,0.0522 c -0.048,-0.371 -0.0964,-0.716 -0.144,-1.09 -0.195,-1.25 -0.35,-3.58 -2.04,-3.6 -0.344,-0.00455 -0.691,0.229 -0.775,0.572 l -1.06,3.96 c -0.145,-1.01 -0.37,-2.02 -0.622,-3 -0.201,-0.796 -1.29,-0.758 -1.53,-0.0203 -0.166,0.527 -0.358,1.03 -0.523,1.55 l -0.275,0.817 c -0.0279,0.105 -0.138,0.422 -0.165,0.501 -0.0265,-3.5e-4 -0.0797,0.0254 -0.106,0.0251 L 2.3774,-0.75 c -0.291,-0.00385 -0.582,-0.0341 -0.873,-0.038 -0.582,-0.0341 -1.16,-0.0418 -1.75,-0.076 -1.11,0.0118 -1.13,1.63 -0.101,1.67 z"
         transform="matrix(0.10617924,0.03667874,-0.03667874,0.10617924,10.582078,2.1792355)"
         fill="#d10369"
         id="path4" />
      <path
         d="m -0.336,0.806 c 0.714,0.0359 1.43,0.0453 2.14,0.0812 0.635,0.0348 1.32,0.123 1.88,-0.293 0.294,-0.234 0.484,-0.576 0.594,-0.918 0.219,1.46 0.358,2.94 0.365,4.45 0.0146,0.9 1.33,1.13 1.58,0.233 0.585,-2.21 1.2,-4.43 1.78,-6.64 0.124,0.637 0.247,1.3 0.318,1.94 0.168,1.33 0.229,2.68 0.211,4.02 -0.00944,0.714 0.859,1.04 1.37,0.574 0.937,-0.861 0.662,-2 0.941,-3.11 0.168,-0.686 1.37,-0.547 2.11,-0.485 1.71,0.142 1.86,-1.48 0.445,-1.52 -1.41,-0.034 -2.42,-0.564 -3.41,0.349 l -0.0536,0.0522 c -0.048,-0.371 -0.0964,-0.716 -0.144,-1.09 -0.195,-1.25 -0.35,-3.58 -2.04,-3.6 -0.344,-0.00455 -0.691,0.229 -0.775,0.572 l -1.06,3.96 c -0.145,-1.01 -0.37,-2.02 -0.622,-3 -0.201,-0.796 -1.29,-0.758 -1.53,-0.0203 -0.166,0.527 -0.358,1.03 -0.523,1.55 l -0.275,0.817 c -0.0279,0.105 -0.138,0.422 -0.165,0.501 -0.0265,-3.5e-4 -0.0797,0.0254 -0.106,0.0251 L 2.3774,-0.75 c -0.291,-0.00385 -0.582,-0.0341 -0.873,-0.038 -0.582,-0.0341 -1.16,-0.0418 -1.75,-0.076 -1.11,0.0118 -1.13,1.63 -0.101,1.67 z"
         transform="matrix(0.08992606,0.02747594,-0.02747594,0.08992606,15.548788,2.1411443)"
         fill="#d10369"
         id="path6" />
      <path
         d="m -0.336,0.806 c 0.714,0.0359 1.43,0.0453 2.14,0.0812 0.635,0.0348 1.32,0.123 1.88,-0.293 0.294,-0.234 0.484,-0.576 0.594,-0.918 0.219,1.46 0.358,2.94 0.365,4.45 0.0146,0.9 1.33,1.13 1.58,0.233 0.585,-2.21 1.2,-4.43 1.78,-6.64 0.124,0.637 0.247,1.3 0.318,1.94 0.168,1.33 0.229,2.68 0.211,4.02 -0.00944,0.714 0.859,1.04 1.37,0.574 0.937,-0.861 0.662,-2 0.941,-3.11 0.168,-0.686 1.37,-0.547 2.11,-0.485 1.71,0.142 1.86,-1.48 0.445,-1.52 -1.41,-0.034 -2.42,-0.564 -3.41,0.349 l -0.0536,0.0522 c -0.048,-0.371 -0.0964,-0.716 -0.144,-1.09 -0.195,-1.25 -0.35,-3.58 -2.04,-3.6 -0.344,-0.00455 -0.691,0.229 -0.775,0.572 l -1.06,3.96 c -0.145,-1.01 -0.37,-2.02 -0.622,-3 -0.201,-0.796 -1.29,-0.758 -1.53,-0.0203 -0.166,0.527 -0.358,1.03 -0.523,1.55 l -0.275,0.817 c -0.0279,0.105 -0.138,0.422 -0.165,0.501 -0.0265,-3.5e-4 -0.0797,0.0254 -0.106,0.0251 L 2.3774,-0.75 c -0.291,-0.00385 -0.582,-0.0341 -0.873,-0.038 -0.582,-0.0341 -1.16,-0.0418 -1.75,-0.076 -1.11,0.0118 -1.13,1.63 -0.101,1.67 z"
         transform="matrix(0.06595083,0.0333287,-0.0333287,0.06595083,20.284395,2.4556293)"
         fill="#d10369"
         id="path8" />
      <path
         d="m 20.4,-0.771 c -0.695,0.185 -1.45,-0.188 -2.1,-0.398 -0.76,-0.214 -1.63,-0.353 -2.33,0.0965 -0.488,0.299 -0.798,0.79 -1,1.31 -0.0821,-2.02 0.154,-4.05 0.731,-5.98 0.274,-0.943 -1.16,-1.39 -1.47,-0.453 -0.633,2.01 -1.29,4.03 -1.92,6.04 -0.362,1.15 -0.672,2.36 -1.17,3.5 -0.392,-2.93 -0.0398,-5.91 0.283,-8.83 0.113,-0.869 -1.23,-1.05 -1.5,-0.269 -0.785,2.54 -1.6,5.05 -2.38,7.59 -0.308,-1.65 -0.323,-3.35 -0.312,-5.02 7.51e-4,-0.715 -1.02,-1.15 -1.41,-0.451 -0.541,0.986 -0.951,2.03 -1.2,3.1 -1.67,-0.0634 -3.31,-0.0994 -4.97,-0.163 -0.978,-0.0373 -1.04,1.5 -0.0584,1.53 1.88,0.0715 3.73,0.116 5.61,0.187 0.238,0.00906 0.507,-0.113 0.648,-0.32 0.159,1.38 0.453,2.72 1.01,4.01 0.268,0.619 1.23,0.47 1.41,-0.132 l 1.15,-3.69 c 0.0179,1.62 0.195,3.21 0.638,4.79 0.187,0.643 1,0.78 1.39,0.238 1.03,-1.42 1.52,-3.17 2.04,-4.85 0.0542,0.664 0.135,1.33 0.242,2 0.0866,0.506 0.689,0.688 1.09,0.492 0.673,-0.292 1.04,-0.966 1.23,-1.62 0.151,-0.497 0.182,-1.29 0.62,-1.67 0.438,-0.38 1.19,-0.00756 1.66,0.143 0.785,0.242 1.62,0.485 2.43,0.278 0.962,-0.228 0.622,-1.72 -0.341,-1.47 z"
         transform="matrix(0.08414583,-0.00433136,0.00433136,0.08414583,25.711695,2.1792355)"
         fill="#d10369"
         id="path10" />
      <path
         d="m 20.4,-0.771 c -0.695,0.185 -1.45,-0.188 -2.1,-0.398 -0.76,-0.214 -1.63,-0.353 -2.33,0.0965 -0.488,0.299 -0.798,0.79 -1,1.31 -0.0821,-2.02 0.154,-4.05 0.731,-5.98 0.274,-0.943 -1.16,-1.39 -1.47,-0.453 -0.633,2.01 -1.29,4.03 -1.92,6.04 -0.362,1.15 -0.672,2.36 -1.17,3.5 -0.392,-2.93 -0.0398,-5.91 0.283,-8.83 0.113,-0.869 -1.23,-1.05 -1.5,-0.269 -0.785,2.54 -1.6,5.05 -2.38,7.59 -0.308,-1.65 -0.323,-3.35 -0.312,-5.02 7.51e-4,-0.715 -1.02,-1.15 -1.41,-0.451 -0.541,0.986 -0.951,2.03 -1.2,3.1 -1.67,-0.0634 -3.31,-0.0994 -4.97,-0.163 -0.978,-0.0373 -1.04,1.5 -0.0584,1.53 1.88,0.0715 3.73,0.116 5.61,0.187 0.238,0.00906 0.507,-0.113 0.648,-0.32 0.159,1.38 0.453,2.72 1.01,4.01 0.268,0.619 1.23,0.47 1.41,-0.132 l 1.15,-3.69 c 0.0179,1.62 0.195,3.21 0.638,4.79 0.187,0.643 1,0.78 1.39,0.238 1.03,-1.42 1.52,-3.17 2.04,-4.85 0.0542,0.664 0.135,1.33 0.242,2 0.0866,0.506 0.689,0.688 1.09,0.492 0.673,-0.292 1.04,-0.966 1.23,-1.62 0.151,-0.497 0.182,-1.29 0.62,-1.67 0.438,-0.38 1.19,-0.00756 1.66,0.143 0.785,0.242 1.62,0.485 2.43,0.278 0.962,-0.228 0.622,-1.72 -0.341,-1.47 z"
         transform="matrix(0.08378353,-0.0040575,0.0040575,0.08378353,28.1584,2.9785326)"
         fill="#d10369"
         id="path12" />
      <path
         d="m 20.4,-0.771 c -0.695,0.185 -1.45,-0.188 -2.1,-0.398 -0.76,-0.214 -1.63,-0.353 -2.33,0.0965 -0.488,0.299 -0.798,0.79 -1,1.31 -0.0821,-2.02 0.154,-4.05 0.731,-5.98 0.274,-0.943 -1.16,-1.39 -1.47,-0.453 -0.633,2.01 -1.29,4.03 -1.92,6.04 -0.362,1.15 -0.672,2.36 -1.17,3.5 -0.392,-2.93 -0.0398,-5.91 0.283,-8.83 0.113,-0.869 -1.23,-1.05 -1.5,-0.269 -0.785,2.54 -1.6,5.05 -2.38,7.59 -0.308,-1.65 -0.323,-3.35 -0.312,-5.02 7.51e-4,-0.715 -1.02,-1.15 -1.41,-0.451 -0.541,0.986 -0.951,2.03 -1.2,3.1 -1.67,-0.0634 -3.31,-0.0994 -4.97,-0.163 -0.978,-0.0373 -1.04,1.5 -0.0584,1.53 1.88,0.0715 3.73,0.116 5.61,0.187 0.238,0.00906 0.507,-0.113 0.648,-0.32 0.159,1.38 0.453,2.72 1.01,4.01 0.268,0.619 1.23,0.47 1.41,-0.132 l 1.15,-3.69 c 0.0179,1.62 0.195,3.21 0.638,4.79 0.187,0.643 1,0.78 1.39,0.238 1.03,-1.42 1.52,-3.17 2.04,-4.85 0.0542,0.664 0.135,1.33 0.242,2 0.0866,0.506 0.689,0.688 1.09,0.492 0.673,-0.292 1.04,-0.966 1.23,-1.62 0.151,-0.497 0.182,-1.29 0.62,-1.67 0.438,-0.38 1.19,-0.00756 1.66,0.143 0.785,0.242 1.62,0.485 2.43,0.278 0.962,-0.228 0.622,-1.72 -0.341,-1.47 z"
         transform="matrix(0.12471886,0.02250762,-0.02250762,0.12471886,33.810219,2.444634)"
         fill="#d10369"
         id="path14" />
      <path
         d="m 0.956,-3.48 c -0.265,-0.265 -0.635,-0.45 -1.01,-0.423 -0.344,0 -0.661,0.159 -0.926,0.397 -0.582,0.556 -0.556,1.53 -0.0794,2.14 0.0265,0.0529 0.0794,0.0794 0.159,0.0794 0.132,0.212 0.317,0.37 0.529,0.476 v 0.0529 c 0,0.159 -0.0265,0.344 -0.0265,0.529 -0.0265,0.344 -0.0265,0.714 -0.0265,1.06 0,0.265 0.238,0.503 0.503,0.503 0.265,0 0.503,-0.212 0.503,-0.503 0,-0.344 0,-0.714 -0.0265,-1.06 0,-0.185 -0.0265,-0.344 -0.0265,-0.529 0.423,-0.132 0.767,-0.476 0.926,-0.926 0.265,-0.609 -0.0265,-1.35 -0.503,-1.8 z m -0.344,1.56 c -0.0265,0.0265 -0.0265,0.0529 -0.0529,0.0794 0,0 -0.0265,0.0265 -0.0265,0.0529 l -0.0265,0.0265 c -0.0265,0.0265 -0.0529,0.0794 -0.106,0.106 -0.0529,0.0529 -0.0265,0.0265 0,0 -0.0265,0 -0.0265,0.0265 -0.0529,0.0265 -0.0265,0.0265 -0.0529,0.0265 -0.0794,0.0265 H 0.2413 0.2148 c -0.0265,0 -0.0529,0 -0.0529,0.0265 H 0.1354 0.056 c -0.0265,0 -0.0529,0 -0.0794,-0.0265 -0.0265,0 -0.0794,-0.0265 -0.0794,-0.0265 h -0.0265 l -0.0529,-0.0529 c -0.0265,-0.0265 -0.0265,-0.0265 -0.0529,-0.0529 0,-0.0265 -0.0265,-0.0529 -0.0529,-0.0794 0,0 0,-0.0265 -0.0265,-0.0265 v -0.0529 -0.0265 -0.0265 -0.0265 c 0.0529,-0.212 -0.0529,-0.476 -0.291,-0.529 h -0.0529 c 0,-0.0265 0,-0.0529 0.0265,-0.0529 0.0265,-0.0265 0.0265,-0.0529 0.0529,-0.0794 0.0265,-0.0265 0.0265,-0.0529 0.0529,-0.0794 0.0265,-0.0265 0.0794,-0.0794 0.106,-0.106 0.0265,0 0.0265,-0.0265 0.0265,-0.0265 0.0265,0 0.0529,-0.0265 0.0794,-0.0529 h 0.0265 c 0.0265,0 0.0529,-0.0265 0.0794,-0.0265 h 0.0265 0.132 c 0.0265,0 0.0529,0.0265 0.0794,0.0265 h 0.0265 c 0.0265,0 0.0529,0.0265 0.0794,0.0529 0.0265,0.0265 0.0529,0.0529 0.106,0.0529 0,0 0.0794,0.0794 0.106,0.0794 0.0265,0.0265 0.0794,0.0794 0.0529,0.0794 0.0265,0.0529 0.0529,0.0794 0.0794,0.132 0.0265,0.0265 0.0265,0.0529 0.0265,0.0794 0.0265,0.0529 0.0265,0.106 0.0529,0.132 0,0.0265 0,0.0529 0.0265,0.0794 v 0.0265 0.132 0.0529 c 0.0529,0.0265 0.0529,0.0529 0.0265,0.0794 z"
         transform="matrix(0.15,0,0,0.15,8.2615147,0.72399998)"
         fill="#d10369"
         id="path16" />
      <path
         d="m 0.956,-3.48 c -0.265,-0.265 -0.635,-0.45 -1.01,-0.423 -0.344,0 -0.661,0.159 -0.926,0.397 -0.582,0.556 -0.556,1.53 -0.0794,2.14 0.0265,0.0529 0.0794,0.0794 0.159,0.0794 0.132,0.212 0.317,0.37 0.529,0.476 v 0.0529 c 0,0.159 -0.0265,0.344 -0.0265,0.529 -0.0265,0.344 -0.0265,0.714 -0.0265,1.06 0,0.265 0.238,0.503 0.503,0.503 0.265,0 0.503,-0.212 0.503,-0.503 0,-0.344 0,-0.714 -0.0265,-1.06 0,-0.185 -0.0265,-0.344 -0.0265,-0.529 0.423,-0.132 0.767,-0.476 0.926,-0.926 0.265,-0.609 -0.0265,-1.35 -0.503,-1.8 z m -0.344,1.56 c -0.0265,0.0265 -0.0265,0.0529 -0.0529,0.0794 0,0 -0.0265,0.0265 -0.0265,0.0529 l -0.0265,0.0265 c -0.0265,0.0265 -0.0529,0.0794 -0.106,0.106 -0.0529,0.0529 -0.0265,0.0265 0,0 -0.0265,0 -0.0265,0.0265 -0.0529,0.0265 -0.0265,0.0265 -0.0529,0.0265 -0.0794,0.0265 H 0.2413 0.2148 c -0.0265,0 -0.0529,0 -0.0529,0.0265 H 0.1354 0.056 c -0.0265,0 -0.0529,0 -0.0794,-0.0265 -0.0265,0 -0.0794,-0.0265 -0.0794,-0.0265 h -0.0265 l -0.0529,-0.0529 c -0.0265,-0.0265 -0.0265,-0.0265 -0.0529,-0.0529 0,-0.0265 -0.0265,-0.0529 -0.0529,-0.0794 0,0 0,-0.0265 -0.0265,-0.0265 v -0.0529 -0.0265 -0.0265 -0.0265 c 0.0529,-0.212 -0.0529,-0.476 -0.291,-0.529 h -0.0529 c 0,-0.0265 0,-0.0529 0.0265,-0.0529 0.0265,-0.0265 0.0265,-0.0529 0.0529,-0.0794 0.0265,-0.0265 0.0265,-0.0529 0.0529,-0.0794 0.0265,-0.0265 0.0794,-0.0794 0.106,-0.106 0.0265,0 0.0265,-0.0265 0.0265,-0.0265 0.0265,0 0.0529,-0.0265 0.0794,-0.0529 h 0.0265 c 0.0265,0 0.0529,-0.0265 0.0794,-0.0265 h 0.0265 0.132 c 0.0265,0 0.0529,0.0265 0.0794,0.0265 h 0.0265 c 0.0265,0 0.0529,0.0265 0.0794,0.0529 0.0265,0.0265 0.0529,0.0529 0.106,0.0529 0,0 0.0794,0.0794 0.106,0.0794 0.0265,0.0265 0.0794,0.0794 0.0529,0.0794 0.0265,0.0529 0.0529,0.0794 0.0794,0.132 0.0265,0.0265 0.0265,0.0529 0.0265,0.0794 0.0265,0.0529 0.0265,0.106 0.0529,0.132 0,0.0265 0,0.0529 0.0265,0.0794 v 0.0265 0.132 0.0529 c 0.0529,0.0265 0.0529,0.0529 0.0265,0.0794 z"
         transform="matrix(0.15,0,0,0.15,13.094549,0.75260234)"
         fill="#d10369"
         id="path18" />
      <path
         d="m 0.956,-3.48 c -0.265,-0.265 -0.635,-0.45 -1.01,-0.423 -0.344,0 -0.661,0.159 -0.926,0.397 -0.582,0.556 -0.556,1.53 -0.0794,2.14 0.0265,0.0529 0.0794,0.0794 0.159,0.0794 0.132,0.212 0.317,0.37 0.529,0.476 v 0.0529 c 0,0.159 -0.0265,0.344 -0.0265,0.529 -0.0265,0.344 -0.0265,0.714 -0.0265,1.06 0,0.265 0.238,0.503 0.503,0.503 0.265,0 0.503,-0.212 0.503,-0.503 0,-0.344 0,-0.714 -0.0265,-1.06 0,-0.185 -0.0265,-0.344 -0.0265,-0.529 0.423,-0.132 0.767,-0.476 0.926,-0.926 0.265,-0.609 -0.0265,-1.35 -0.503,-1.8 z m -0.344,1.56 c -0.0265,0.0265 -0.0265,0.0529 -0.0529,0.0794 0,0 -0.0265,0.0265 -0.0265,0.0529 l -0.0265,0.0265 c -0.0265,0.0265 -0.0529,0.0794 -0.106,0.106 -0.0529,0.0529 -0.0265,0.0265 0,0 -0.0265,0 -0.0265,0.0265 -0.0529,0.0265 -0.0265,0.0265 -0.0529,0.0265 -0.0794,0.0265 H 0.2413 0.2148 c -0.0265,0 -0.0529,0 -0.0529,0.0265 H 0.1354 0.056 c -0.0265,0 -0.0529,0 -0.0794,-0.0265 -0.0265,0 -0.0794,-0.0265 -0.0794,-0.0265 h -0.0265 l -0.0529,-0.0529 c -0.0265,-0.0265 -0.0265,-0.0265 -0.0529,-0.0529 0,-0.0265 -0.0265,-0.0529 -0.0529,-0.0794 0,0 0,-0.0265 -0.0265,-0.0265 v -0.0529 -0.0265 -0.0265 -0.0265 c 0.0529,-0.212 -0.0529,-0.476 -0.291,-0.529 h -0.0529 c 0,-0.0265 0,-0.0529 0.0265,-0.0529 0.0265,-0.0265 0.0265,-0.0529 0.0529,-0.0794 0.0265,-0.0265 0.0265,-0.0529 0.0529,-0.0794 0.0265,-0.0265 0.0794,-0.0794 0.106,-0.106 0.0265,0 0.0265,-0.0265 0.0265,-0.0265 0.0265,0 0.0529,-0.0265 0.0794,-0.0529 h 0.0265 c 0.0265,0 0.0529,-0.0265 0.0794,-0.0265 h 0.0265 0.132 c 0.0265,0 0.0529,0.0265 0.0794,0.0265 h 0.0265 c 0.0265,0 0.0529,0.0265 0.0794,0.0529 0.0265,0.0265 0.0529,0.0529 0.106,0.0529 0,0 0.0794,0.0794 0.106,0.0794 0.0265,0.0265 0.0794,0.0794 0.0529,0.0794 0.0265,0.0529 0.0529,0.0794 0.0794,0.132 0.0265,0.0265 0.0265,0.0529 0.0265,0.0794 0.0265,0.0529 0.0265,0.106 0.0529,0.132 0,0.0265 0,0.0529 0.0265,0.0794 v 0.0265 0.132 0.0529 c 0.0529,0.0265 0.0529,0.0529 0.0265,0.0794 z"
         transform="matrix(0.15,0,0,0.15,17.69475,0.7646144)"
         fill="#d10369"
         id="path20" />
      <path
         d="m 0.956,-3.48 c -0.265,-0.265 -0.635,-0.45 -1.01,-0.423 -0.344,0 -0.661,0.159 -0.926,0.397 -0.582,0.556 -0.556,1.53 -0.0794,2.14 0.0265,0.0529 0.0794,0.0794 0.159,0.0794 0.132,0.212 0.317,0.37 0.529,0.476 v 0.0529 c 0,0.159 -0.0265,0.344 -0.0265,0.529 -0.0265,0.344 -0.0265,0.714 -0.0265,1.06 0,0.265 0.238,0.503 0.503,0.503 0.265,0 0.503,-0.212 0.503,-0.503 0,-0.344 0,-0.714 -0.0265,-1.06 0,-0.185 -0.0265,-0.344 -0.0265,-0.529 0.423,-0.132 0.767,-0.476 0.926,-0.926 0.265,-0.609 -0.0265,-1.35 -0.503,-1.8 z m -0.344,1.56 c -0.0265,0.0265 -0.0265,0.0529 -0.0529,0.0794 0,0 -0.0265,0.0265 -0.0265,0.0529 l -0.0265,0.0265 c -0.0265,0.0265 -0.0529,0.0794 -0.106,0.106 -0.0529,0.0529 -0.0265,0.0265 0,0 -0.0265,0 -0.0265,0.0265 -0.0529,0.0265 -0.0265,0.0265 -0.0529,0.0265 -0.0794,0.0265 H 0.2413 0.2148 c -0.0265,0 -0.0529,0 -0.0529,0.0265 H 0.1354 0.056 c -0.0265,0 -0.0529,0 -0.0794,-0.0265 -0.0265,0 -0.0794,-0.0265 -0.0794,-0.0265 h -0.0265 l -0.0529,-0.0529 c -0.0265,-0.0265 -0.0265,-0.0265 -0.0529,-0.0529 0,-0.0265 -0.0265,-0.0529 -0.0529,-0.0794 0,0 0,-0.0265 -0.0265,-0.0265 v -0.0529 -0.0265 -0.0265 -0.0265 c 0.0529,-0.212 -0.0529,-0.476 -0.291,-0.529 h -0.0529 c 0,-0.0265 0,-0.0529 0.0265,-0.0529 0.0265,-0.0265 0.0265,-0.0529 0.0529,-0.0794 0.0265,-0.0265 0.0265,-0.0529 0.0529,-0.0794 0.0265,-0.0265 0.0794,-0.0794 0.106,-0.106 0.0265,0 0.0265,-0.0265 0.0265,-0.0265 0.0265,0 0.0529,-0.0265 0.0794,-0.0529 h 0.0265 c 0.0265,0 0.0529,-0.0265 0.0794,-0.0265 h 0.0265 0.132 c 0.0265,0 0.0529,0.0265 0.0794,0.0265 h 0.0265 c 0.0265,0 0.0529,0.0265 0.0794,0.0529 0.0265,0.0265 0.0529,0.0529 0.106,0.0529 0,0 0.0794,0.0794 0.106,0.0794 0.0265,0.0265 0.0794,0.0794 0.0529,0.0794 0.0265,0.0529 0.0529,0.0794 0.0794,0.132 0.0265,0.0265 0.0265,0.0529 0.0265,0.0794 0.0265,0.0529 0.0265,0.106 0.0529,0.132 0,0.0265 0,0.0529 0.0265,0.0794 v 0.0265 0.132 0.0529 c 0.0529,0.0265 0.0529,0.0529 0.0265,0.0794 z"
         transform="matrix(0.15,0,0,0.15,23.853399,0.75248337)"
         fill="#d10369"
         id="path22" />
      <path
         d="m 0.956,-3.48 c -0.265,-0.265 -0.635,-0.45 -1.01,-0.423 -0.344,0 -0.661,0.159 -0.926,0.397 -0.582,0.556 -0.556,1.53 -0.0794,2.14 0.0265,0.0529 0.0794,0.0794 0.159,0.0794 0.132,0.212 0.317,0.37 0.529,0.476 v 0.0529 c 0,0.159 -0.0265,0.344 -0.0265,0.529 -0.0265,0.344 -0.0265,0.714 -0.0265,1.06 0,0.265 0.238,0.503 0.503,0.503 0.265,0 0.503,-0.212 0.503,-0.503 0,-0.344 0,-0.714 -0.0265,-1.06 0,-0.185 -0.0265,-0.344 -0.0265,-0.529 0.423,-0.132 0.767,-0.476 0.926,-0.926 0.265,-0.609 -0.0265,-1.35 -0.503,-1.8 z m -0.344,1.56 c -0.0265,0.0265 -0.0265,0.0529 -0.0529,0.0794 0,0 -0.0265,0.0265 -0.0265,0.0529 l -0.0265,0.0265 c -0.0265,0.0265 -0.0529,0.0794 -0.106,0.106 -0.0529,0.0529 -0.0265,0.0265 0,0 -0.0265,0 -0.0265,0.0265 -0.0529,0.0265 -0.0265,0.0265 -0.0529,0.0265 -0.0794,0.0265 H 0.2413 0.2148 c -0.0265,0 -0.0529,0 -0.0529,0.0265 H 0.1354 0.056 c -0.0265,0 -0.0529,0 -0.0794,-0.0265 -0.0265,0 -0.0794,-0.0265 -0.0794,-0.0265 h -0.0265 l -0.0529,-0.0529 c -0.0265,-0.0265 -0.0265,-0.0265 -0.0529,-0.0529 0,-0.0265 -0.0265,-0.0529 -0.0529,-0.0794 0,0 0,-0.0265 -0.0265,-0.0265 v -0.0529 -0.0265 -0.0265 -0.0265 c 0.0529,-0.212 -0.0529,-0.476 -0.291,-0.529 h -0.0529 c 0,-0.0265 0,-0.0529 0.0265,-0.0529 0.0265,-0.0265 0.0265,-0.0529 0.0529,-0.0794 0.0265,-0.0265 0.0265,-0.0529 0.0529,-0.0794 0.0265,-0.0265 0.0794,-0.0794 0.106,-0.106 0.0265,0 0.0265,-0.0265 0.0265,-0.0265 0.0265,0 0.0529,-0.0265 0.0794,-0.0529 h 0.0265 c 0.0265,0 0.0529,-0.0265 0.0794,-0.0265 h 0.0265 0.132 c 0.0265,0 0.0529,0.0265 0.0794,0.0265 h 0.0265 c 0.0265,0 0.0529,0.0265 0.0794,0.0529 0.0265,0.0265 0.0529,0.0529 0.106,0.0529 0,0 0.0794,0.0794 0.106,0.0794 0.0265,0.0265 0.0794,0.0794 0.0529,0.0794 0.0265,0.0529 0.0529,0.0794 0.0794,0.132 0.0265,0.0265 0.0265,0.0529 0.0265,0.0794 0.0265,0.0529 0.0265,0.106 0.0529,0.132 0,0.0265 0,0.0529 0.0265,0.0794 v 0.0265 0.132 0.0529 c 0.0529,0.0265 0.0529,0.0529 0.0265,0.0794 z"
         transform="matrix(0.15,0,0,0.15,28.159586,0.76909828)"
         fill="#d10369"
         id="path24" />
      <path
         d="m 0.956,-3.48 c -0.265,-0.265 -0.635,-0.45 -1.01,-0.423 -0.344,0 -0.661,0.159 -0.926,0.397 -0.582,0.556 -0.556,1.53 -0.0794,2.14 0.0265,0.0529 0.0794,0.0794 0.159,0.0794 0.132,0.212 0.317,0.37 0.529,0.476 v 0.0529 c 0,0.159 -0.0265,0.344 -0.0265,0.529 -0.0265,0.344 -0.0265,0.714 -0.0265,1.06 0,0.265 0.238,0.503 0.503,0.503 0.265,0 0.503,-0.212 0.503,-0.503 0,-0.344 0,-0.714 -0.0265,-1.06 0,-0.185 -0.0265,-0.344 -0.0265,-0.529 0.423,-0.132 0.767,-0.476 0.926,-0.926 0.265,-0.609 -0.0265,-1.35 -0.503,-1.8 z m -0.344,1.56 c -0.0265,0.0265 -0.0265,0.0529 -0.0529,0.0794 0,0 -0.0265,0.0265 -0.0265,0.0529 l -0.0265,0.0265 c -0.0265,0.0265 -0.0529,0.0794 -0.106,0.106 -0.0529,0.0529 -0.0265,0.0265 0,0 -0.0265,0 -0.0265,0.0265 -0.0529,0.0265 -0.0265,0.0265 -0.0529,0.0265 -0.0794,0.0265 H 0.2413 0.2148 c -0.0265,0 -0.0529,0 -0.0529,0.0265 H 0.1354 0.056 c -0.0265,0 -0.0529,0 -0.0794,-0.0265 -0.0265,0 -0.0794,-0.0265 -0.0794,-0.0265 h -0.0265 l -0.0529,-0.0529 c -0.0265,-0.0265 -0.0265,-0.0265 -0.0529,-0.0529 0,-0.0265 -0.0265,-0.0529 -0.0529,-0.0794 0,0 0,-0.0265 -0.0265,-0.0265 v -0.0529 -0.0265 -0.0265 -0.0265 c 0.0529,-0.212 -0.0529,-0.476 -0.291,-0.529 h -0.0529 c 0,-0.0265 0,-0.0529 0.0265,-0.0529 0.0265,-0.0265 0.0265,-0.0529 0.0529,-0.0794 0.0265,-0.0265 0.0265,-0.0529 0.0529,-0.0794 0.0265,-0.0265 0.0794,-0.0794 0.106,-0.106 0.0265,0 0.0265,-0.0265 0.0265,-0.0265 0.0265,0 0.0529,-0.0265 0.0794,-0.0529 h 0.0265 c 0.0265,0 0.0529,-0.0265 0.0794,-0.0265 h 0.0265 0.132 c 0.0265,0 0.0529,0.0265 0.0794,0.0265 h 0.0265 c 0.0265,0 0.0529,0.0265 0.0794,0.0529 0.0265,0.0265 0.0529,0.0529 0.106,0.0529 0,0 0.0794,0.0794 0.106,0.0794 0.0265,0.0265 0.0794,0.0794 0.0529,0.0794 0.0265,0.0529 0.0529,0.0794 0.0794,0.132 0.0265,0.0265 0.0265,0.0529 0.0265,0.0794 0.0265,0.0529 0.0265,0.106 0.0529,0.132 0,0.0265 0,0.0529 0.0265,0.0794 v 0.0265 0.132 0.0529 c 0.0529,0.0265 0.0529,0.0529 0.0265,0.0794 z"
         transform="matrix(0.15,0,0,0.15,33.732273,0.81461096)"
         fill="#d10369"
         id="path26" />
      <path
         d="m 0.147,-0.826 c -0.219,-0.007 -0.389,0.12 -0.459,0.329 -0.185,0.503 -0.265,1.03 -0.265,1.56 0,0.265 0.0266,0.529 0.106,0.794 v 0.0264 c -0.714,0.0529 -1.46,0.132 -2.17,0.212 -0.238,0.0265 -0.45,0.185 -0.45,0.45 0,0.238 0.211,0.502 0.45,0.45 1.24,-0.159 2.49,-0.185 3.76,-0.159 0.609,0.0265 1.22,0.053 1.83,0.106 0.318,0.0265 0.635,0.0795 0.953,0.106 C 4.22,3.0749 4.563,3.1279 4.854,3.022 5.092,2.9691 5.277,2.651 5.039,2.44 4.536,2.043 3.739,2.017 3.139,1.964 2.504,1.9111 1.869,1.858 1.209,1.858 H 0.415 C 0.415,1.8051 0.3886,1.752 0.3886,1.672 0.3621,1.513 0.3359,1.275 0.3359,1.064 c 0,-0.476 0.0525,-0.847 0.238,-1.32 C 0.6533,-0.494 0.4679,-0.759 0.2569,-0.812 0.2238,-0.819 0.1915,-0.8224 0.1603,-0.8234 Z m 1.95,4.48 c -0.423,0 -0.82,0.0268 -1.24,0.0532 -0.82,0.0265 -1.61,0.0795 -2.43,0.106 -0.688,0.0265 -0.688,1.08 0,1.06 0.82,-0.0265 1.61,-0.0795 2.43,-0.106 C 1.254,4.7408 1.651,4.7404 2.047,4.714 2.47,4.6875 2.92,4.6615 3.287,4.476 3.525,4.344 3.552,3.92 3.287,3.815 2.917,3.656 2.493,3.656 2.097,3.656 Z m -1.37,1.92 C 0.462,5.572 0.189,5.5913 -0.069,5.6112 -0.201,5.6377 -0.334,5.664 -0.44,5.7702 c -0.0794,0.0794 -0.159,0.238 -0.159,0.371 0,0.133 0.0528,0.291 0.159,0.371 0.106,0.0794 0.238,0.159 0.371,0.159 0.344,-0.0529 0.661,-0.0528 1.01,-0.0264 0.159,0 0.318,0.0264 0.476,0.0264 C 1.629,6.6977 1.893,6.7508 2.078,6.6185 2.29,6.4595 2.395,6.2215 2.263,6.0095 2.131,5.7715 1.84,5.7185 1.602,5.6655 1.39,5.6126 1.179,5.5859 0.994,5.5859 0.908,5.5789 0.82,5.5759 0.731,5.5751 Z"
         transform="matrix(0.15,0,0,0.15,3.0336332,5.6519566)"
         fill="#d10369"
         id="path28" />
      <path
         d="m 4.78,-1.55 c -0.661,0.106 -1.24,0.688 -1.3,1.38 -0.582,-0.0265 -1.14,-0.0265 -1.72,-0.0265 -0.741,0 -1.48,0 -2.25,0.0265 -0.529,0 -0.529,0.847 0,0.82 C 0.277,0.6235 1.02,0.6235 1.79,0.5971 2.372,0.5706 2.98,0.5442 3.56,0.4911 c 0.106,0.238 0.238,0.45 0.45,0.635 0.265,0.212 0.609,0.37 0.952,0.344 0.318,0.212 0.767,0.238 1.14,0.0529 0.714,-0.397 0.741,-1.38 0.45,-2.04 C 6.393,-0.861 6.155,-1.178 5.811,-1.364 5.493,-1.576 5.15,-1.629 4.781,-1.549 Z m 0.714,0.952 c 0,0 0.0265,0 0.0265,0.0265 C 5.494,-0.598 5.547,-0.545 5.5734,-0.545 l 0.0794,0.0794 c 0,0 0.0265,0.0265 0.0265,0.0529 0.0265,0.0529 0.0529,0.106 0.0794,0.132 0.0265,0.0265 0.0265,0.0529 0.0529,0.0794 v 0.0265 c 0.0265,0.0529 0.0265,0.106 0.0529,0.159 0,0.0265 0.0265,0.0529 0.0265,0.106 v 0.185 0.0265 0.0265 0.0265 c 0,0.0529 -0.0265,0.132 -0.0529,0.159 0,0 0,0.0265 -0.0265,0.0265 C 5.7851,0.5667 5.7851,0.5931 5.7587,0.6196 5.7322,0.6461 5.7058,0.6725 5.6793,0.699 c -0.0265,0 -0.0265,0 -0.0265,0.0265 -0.0265,0 -0.0265,0 -0.0529,0.0265 H 5.547 C 5.5205,0.752 5.4941,0.7255 5.4676,0.7255 5.4411,0.7255 5.4411,0.699 5.4147,0.699 V 0.6725 c 0,-0.238 -0.212,-0.45 -0.423,-0.423 -0.106,0 -0.212,0.0529 -0.291,0.106 0,0 -0.0265,-0.0265 -0.0265,-0.0265 C 4.6477,0.2761 4.6213,0.223 4.5948,0.17 c 0,-0.0265 -0.0265,-0.0529 -0.0265,-0.0794 0,-0.0265 0,-0.0529 -0.0265,-0.0794 v -0.132 -0.0265 c 0,-0.0265 0.0265,-0.0529 0.0265,-0.0794 v -0.0265 c 0,0 0,-0.0265 0.0265,-0.0265 0.0265,-0.0265 0.0265,-0.0529 0.0529,-0.0794 L 4.6742,-0.3856 C 4.7007,-0.4121 4.7007,-0.4385 4.7271,-0.4385 L 4.78,-0.4914 c 0.0265,0 0.0529,-0.0265 0.0529,-0.0529 0.0265,-0.0265 0.0529,-0.0265 0.106,-0.0529 0.0265,0 0.0265,-0.0265 0.0265,-0.0265 0.0529,-0.0265 0.106,-0.0265 0.159,-0.0529 h 0.0529 0.0794 0.0265 c 0.0529,0 0.0794,0.0265 0.132,0.0265 0,0.0265 0.0265,0.0529 0.0794,0.0529 z"
         transform="matrix(0.15,0,0,0.15,38.841785,1.3198434)"
         fill="#d10369"
         id="path30" />
    </g>
    <path
       d="m 1.45,1.14 q 0,-0.334 0.489,-0.334 0.21,0 0.799,0.0155 0.652,0.031 0.986,0.031 0.272,0 0.66,-0.031 Q 4.648,0.806 4.718,0.806 5.145,0.8215 5.44,0.961 q 0.0854,0.0388 0.14,0.0931 0.0543,0.0543 0.0543,0.179 0,0.171 -0.109,0.295 -0.109,0.116 -0.264,0.116 -0.171,0 -0.497,-0.0466 -0.287,-0.0543 -0.504,-0.0543 -0.21,0 -0.318,0.00776 -0.0233,0.256 -0.0233,1.23 0,1.16 0.0698,2.34 l 0.0155,0.225 q 0,0.318 -0.365,0.318 -0.287,0 -0.388,-0.132 -0.101,-0.14 -0.101,-0.419 0,-0.551 -0.031,-1.37 -0.031,-0.683 -0.031,-0.97 0,-0.194 0.0466,-1.19 l -0.908,0.00776 q -0.435,0 -0.605,-0.0776 -0.171,-0.0854 -0.171,-0.373 z"
       fill="#30ac5a"
       transform="translate(-0.45000005)"
       id="path34" />
    <path
       d="m 3.42,0.724 q 0.52,0 0.947,0.132 0.427,0.124 0.698,0.373 0.489,0.442 0.683,0.97 0.202,0.52 0.202,1.33 0,0.171 -0.0466,0.31 -0.0388,0.14 -0.132,0.357 -0.116,0.241 -0.14,0.38 -0.155,0.272 -0.512,0.52 -0.349,0.248 -0.761,0.404 -0.412,0.156 -0.722,0.155 -1.5,0 -2.13,-1.02 Q 1.3274,4.348 1.2274,4.037 1.1343,3.727 1.1343,3.432 q 0,-0.792 0.279,-1.37 0.287,-0.59 0.792,-0.916 0.303,-0.179 0.629,-0.295 0.334,-0.124 0.59,-0.124 z m -1.48,2.73 q 0,0.419 0.186,0.691 0.194,0.272 0.59,0.59 0.326,0.124 0.442,0.163 0.116,0.031 0.264,0.031 0.784,0 1.25,-0.427 0.466,-0.427 0.466,-1.17 0,-0.59 -0.132,-0.931 Q 4.874,2.06 4.533,1.788 4.354,1.641 4.075,1.571 3.803,1.5012 3.485,1.5012 q -0.481,0 -0.83,0.287 -0.349,0.279 -0.536,0.73 -0.179,0.45 -0.179,0.939 z"
       fill="#ee7400"
       transform="translate(4.841515)"
       id="path36" />
    <path
       d="M 3.74,3.91 Q 3.445,3.91 3.236,3.8945 3.034,3.8712 2.7,3.8247 q 0,0.334 -0.0155,0.815 l -0.0078,0.598 q 0,0.202 -0.109,0.318 -0.109,0.109 -0.256,0.109 -0.256,0 -0.38,-0.0621 -0.116,-0.0698 -0.116,-0.241 0,-0.303 0.031,-0.636 0.0931,-0.807 0.0931,-1.82 0,-0.706 -0.0388,-1.33 Q 1.769,1.5213 1.668,1.4356 1.5749,1.3502 1.567,1.2646 q 0,-0.202 0.147,-0.326 0.147,-0.124 0.45,-0.124 0.248,0 0.613,-0.0388 Q 2.8624,0.76804 3.072,0.7525 3.282,0.737 3.437,0.737 q 0.636,0 0.986,0.124 0.357,0.124 0.714,0.411 0.388,0.605 0.388,0.854 0,0.799 -0.473,1.29 -0.466,0.489 -1.31,0.489 z M 3.569,1.4 q -0.248,0 -0.442,0.031 -0.186,0.0233 -0.435,0.0854 0.0388,0.598 0.0388,1.04 0,0.334 -0.0233,0.559 0.334,0.0698 0.52,0.0931 0.194,0.0155 0.435,0.0155 0.574,0 0.807,-0.295 0.241,-0.295 0.241,-0.698 0,-0.116 -0.0698,-0.287 Q 4.5786,1.773 4.5247,1.719 4.3147,1.533 4.1137,1.471 3.9117,1.4012 3.5707,1.4012 Z"
       fill="#30ac5a"
       transform="translate(10.023919)"
       id="path38" />
    <path
       d="M 3.74,3.91 Q 3.445,3.91 3.236,3.8945 3.034,3.8712 2.7,3.8247 q 0,0.334 -0.0155,0.815 l -0.0078,0.598 q 0,0.202 -0.109,0.318 -0.109,0.109 -0.256,0.109 -0.256,0 -0.38,-0.0621 -0.116,-0.0698 -0.116,-0.241 0,-0.303 0.031,-0.636 0.0931,-0.807 0.0931,-1.82 0,-0.706 -0.0388,-1.33 Q 1.769,1.5213 1.668,1.4356 1.5749,1.3502 1.567,1.2646 q 0,-0.202 0.147,-0.326 0.147,-0.124 0.45,-0.124 0.248,0 0.613,-0.0388 Q 2.8624,0.76804 3.072,0.7525 3.282,0.737 3.437,0.737 q 0.636,0 0.986,0.124 0.357,0.124 0.714,0.411 0.388,0.605 0.388,0.854 0,0.799 -0.473,1.29 -0.466,0.489 -1.31,0.489 z M 3.569,1.4 q -0.248,0 -0.442,0.031 -0.186,0.0233 -0.435,0.0854 0.0388,0.598 0.0388,1.04 0,0.334 -0.0233,0.559 0.334,0.0698 0.52,0.0931 0.194,0.0155 0.435,0.0155 0.574,0 0.807,-0.295 0.241,-0.295 0.241,-0.698 0,-0.116 -0.0698,-0.287 Q 4.5786,1.773 4.5247,1.719 4.3147,1.533 4.1137,1.471 3.9117,1.4012 3.5707,1.4012 Z"
       fill="#ee7400"
       transform="translate(14.781402)"
       id="path40" />
    <path
       d="m 3.42,0.724 q 0.52,0 0.947,0.132 0.427,0.124 0.698,0.373 0.489,0.442 0.683,0.97 0.202,0.52 0.202,1.33 0,0.171 -0.0466,0.31 -0.0388,0.14 -0.132,0.357 -0.116,0.241 -0.14,0.38 -0.155,0.272 -0.512,0.52 -0.349,0.248 -0.761,0.404 -0.412,0.156 -0.722,0.155 -1.5,0 -2.13,-1.02 Q 1.3274,4.348 1.2274,4.037 1.1343,3.727 1.1343,3.432 q 0,-0.792 0.279,-1.37 0.287,-0.59 0.792,-0.916 0.303,-0.179 0.629,-0.295 0.334,-0.124 0.59,-0.124 z m -1.48,2.73 q 0,0.419 0.186,0.691 0.194,0.272 0.59,0.59 0.326,0.124 0.442,0.163 0.116,0.031 0.264,0.031 0.784,0 1.25,-0.427 0.466,-0.427 0.466,-1.17 0,-0.59 -0.132,-0.931 Q 4.874,2.06 4.533,1.788 4.354,1.641 4.075,1.571 3.803,1.5012 3.485,1.5012 q -0.481,0 -0.83,0.287 -0.349,0.279 -0.536,0.73 -0.179,0.45 -0.179,0.939 z"
       fill="#30ac5a"
       transform="translate(19.971133)"
       id="path42" />
    <path
       d="m 3.89,1.38 q -0.031,0.667 -0.031,0.955 0,0.629 0.0388,1.39 0.031,0.9 0.031,1.33 0.295,-0.0388 0.357,-0.0388 0.171,0 0.272,0.0854 0.101,0.0854 0.101,0.264 0,0.116 -0.0931,0.179 Q 4.4726,5.6067 4.2397,5.6377 4.0147,5.661 3.5797,5.661 3.0987,5.661 2.8577,5.63 2.6167,5.599 2.5237,5.514 2.4306,5.4209 2.4306,5.242 2.4306,5.11 2.516,5.063 2.6014,5.0164 2.757,5.0164 l 0.163,0.00776 0.256,0.0155 -0.0388,-0.916 q -0.0466,-0.745 -0.0466,-1.37 0,-0.334 0.0233,-0.916 l 0.0155,-0.427 q -0.264,0.0155 -0.411,0.0155 -0.171,0 -0.233,-0.0621 -0.0543,-0.0621 -0.0543,-0.256 0,-0.217 0.295,-0.279 0.303,-0.0621 0.916,-0.0621 0.473,0 0.706,0.031 0.241,0.031 0.241,0.14 0,0.264 -0.116,0.349 -0.109,0.0776 -0.427,0.0776 z"
       fill="#ee7400"
       transform="translate(24.290125)"
       id="path44" />
    <path
       d="m 4.73,1.3 q 0,-0.225 0.101,-0.388 0.109,-0.171 0.318,-0.171 0.179,0 0.318,0.0698 0.139,0.0698 0.14,0.233 0,0.318 -0.031,0.893 -0.031,0.559 -0.031,0.83 0,0.427 0.031,1.14 0.031,0.683 0.031,1 0,0.256 -0.0078,0.38 0,0.124 -0.14,0.248 -0.132,0.116 -0.411,0.116 -0.147,0 -0.256,-0.0466 -0.101,-0.0543 -0.14,-0.116 -0.365,-0.442 -1.06,-1.51 -0.784,-1.19 -1.28,-1.82 0.0621,0.559 0.0621,1.37 0,0.357 -0.0155,0.931 -0.0078,0.567 -0.031,0.745 -0.031,0.225 -0.14,0.349 -0.101,0.116 -0.326,0.116 -0.171,0 -0.256,-0.0931 -0.0776,-0.101 -0.0931,-0.341 -0.0078,-0.318 0.0388,-0.955 0.0078,-0.101 0.0233,-0.349 0.0155,-0.248 0.0155,-0.442 0,-0.536 -0.0543,-1.23 -0.0466,-0.761 -0.0466,-1.13 0,-0.186 0.132,-0.287 0.14,-0.101 0.318,-0.101 0.155,0 0.326,0.0776 0.667,0.838 1.81,2.5 l 0.73,1.12 q 0.0078,-0.124 0.0078,-0.349 0,-0.396 -0.0155,-0.854 Q 4.7822,2.7777 4.7744,2.6147 4.7356,1.8617 4.7356,1.2847 Z"
       fill="#30ac5a"
       transform="translate(28.258133)"
       id="path46" />
    <path
       d="m 1.45,1.14 q 0,-0.334 0.489,-0.334 0.21,0 0.799,0.0155 0.652,0.031 0.986,0.031 0.272,0 0.66,-0.031 Q 4.648,0.806 4.718,0.806 5.145,0.8215 5.44,0.961 q 0.0854,0.0388 0.14,0.0931 0.0543,0.0543 0.0543,0.179 0,0.171 -0.109,0.295 -0.109,0.116 -0.264,0.116 -0.171,0 -0.497,-0.0466 -0.287,-0.0543 -0.504,-0.0543 -0.21,0 -0.318,0.00776 -0.0233,0.256 -0.0233,1.23 0,1.16 0.0698,2.34 l 0.0155,0.225 q 0,0.318 -0.365,0.318 -0.287,0 -0.388,-0.132 -0.101,-0.14 -0.101,-0.419 0,-0.551 -0.031,-1.37 -0.031,-0.683 -0.031,-0.97 0,-0.194 0.0466,-1.19 l -0.908,0.00776 q -0.435,0 -0.605,-0.0776 -0.171,-0.0854 -0.171,-0.373 z"
       fill="#ee7400"
       transform="translate(33.21513)"
       id="path48" />
  </g>
</svg>
